<svg width="80" height="80" viewBox="0 0 80 80" fill="none" xmlns="http://www.w3.org/2000/svg">
<mask id="mask0" mask-type="alpha" maskUnits="userSpaceOnUse" x="0" y="0" width="80" height="80">
<path d="M80 40C80 17.9086 62.0914 0 40 0C17.9086 0 0 17.9086 0 40C0 62.0914 17.9086 80 40 80C62.0914 80 80 62.0914 80 40Z" fill="white"/>
</mask>
<g mask="url(#mask0)">
<path d="M80 40C80 17.9086 62.0914 0 40 0C17.9086 0 0 17.9086 0 40C0 62.0914 17.9086 80 40 80C62.0914 80 80 62.0914 80 40Z" fill="#A3A948"/>
<path d="M105.503 6.77597L44.2992 -11.9358C35.8487 -14.5194 26.9039 -9.76333 24.3203 -1.31289L5.60855 59.8906C3.02499 68.3411 7.78104 77.2859 16.2315 79.8694L77.435 98.5812C85.8854 101.165 94.8303 96.4087 97.4138 87.9583L116.126 26.7548C118.709 18.3044 113.953 9.35953 105.503 6.77597Z" fill="#F85931"/>
<path d="M40.3484 43.5823C44.4889 46.3296 48.9002 46.8712 53.5823 45.2072" stroke="black" stroke-width="2.22222" stroke-linecap="round"/>
<path d="M38.6649 29.9421C38.8144 28.7239 38.1951 27.6455 37.2814 27.5333C36.3678 27.4211 35.5059 28.3177 35.3564 29.5359C35.2068 30.754 35.8262 31.8325 36.7398 31.9446C37.6534 32.0568 38.5153 31.1602 38.6649 29.9421Z" fill="black"/>
<path d="M60.7215 32.6503C60.8711 31.4322 60.2517 30.3537 59.3381 30.2416C58.4245 30.1294 57.5626 31.026 57.413 32.2441C57.2634 33.4623 57.8828 34.5407 58.7964 34.6529C59.7101 34.7651 60.5719 33.8685 60.7215 32.6503Z" fill="black"/>
</g>
</svg>
