<svg width="283" height="64" viewBox="0 0 243 19" fill="none" xmlns="http://www.w3.org/2000/svg">
<path d="M12.4922 18L11.6484 14.7891H6.08203L5.21484 18H0.128906L5.71875 0.796875H11.8945L17.5547 18H12.4922ZM10.6875 10.9922L9.94922 8.17969C9.77734 7.55469 9.56641 6.74609 9.31641 5.75391C9.07422 4.76172 8.91406 4.05078 8.83594 3.62109C8.76562 4.01953 8.625 4.67578 8.41406 5.58984C8.21094 6.50391 7.75391 8.30469 7.04297 10.9922H10.6875ZM24.0469 11.7656V18H19.418V0.867188H25.0312C29.6875 0.867188 32.0156 2.55469 32.0156 5.92969C32.0156 7.91406 31.0469 9.44922 29.1094 10.5352L34.1016 18H28.8516L25.2188 11.7656H24.0469ZM24.0469 8.28516H24.9141C26.5312 8.28516 27.3398 7.57031 27.3398 6.14062C27.3398 4.96094 26.5469 4.37109 24.9609 4.37109H24.0469V8.28516ZM43.2188 18H38.5898V4.65234H34.4062V0.867188H47.3906V4.65234H43.2188V18ZM49.8398 18V0.867188H54.4922V18H49.8398ZM69.4102 12.7969C69.4102 13.8594 69.1406 14.8047 68.6016 15.6328C68.0625 16.4531 67.2852 17.0938 66.2695 17.5547C65.2539 18.0078 64.0625 18.2344 62.6953 18.2344C61.5547 18.2344 60.5977 18.1562 59.8242 18C59.0508 17.8359 58.2461 17.5547 57.4102 17.1562V13.0312C58.293 13.4844 59.2109 13.8398 60.1641 14.0977C61.1172 14.3477 61.9922 14.4727 62.7891 14.4727C63.4766 14.4727 63.9805 14.3555 64.3008 14.1211C64.6211 13.8789 64.7812 13.5703 64.7812 13.1953C64.7812 12.9609 64.7148 12.7578 64.582 12.5859C64.457 12.4062 64.25 12.2266 63.9609 12.0469C63.6797 11.8672 62.9219 11.5 61.6875 10.9453C60.5703 10.4375 59.7305 9.94531 59.168 9.46875C58.6133 8.99219 58.1992 8.44531 57.9258 7.82812C57.6602 7.21094 57.5273 6.48047 57.5273 5.63672C57.5273 4.05859 58.1016 2.82812 59.25 1.94531C60.3984 1.0625 61.9766 0.621094 63.9844 0.621094C65.7578 0.621094 67.5664 1.03125 69.4102 1.85156L67.9922 5.42578C66.3906 4.69141 65.0078 4.32422 63.8438 4.32422C63.2422 4.32422 62.8047 4.42969 62.5312 4.64062C62.2578 4.85156 62.1211 5.11328 62.1211 5.42578C62.1211 5.76172 62.293 6.0625 62.6367 6.32812C62.9883 6.59375 63.9336 7.07812 65.4727 7.78125C66.9492 8.44531 67.9727 9.16016 68.543 9.92578C69.1211 10.6836 69.4102 11.6406 69.4102 12.7969ZM82.5703 18L81.7266 14.7891H76.1602L75.293 18H70.207L75.7969 0.796875H81.9727L87.6328 18H82.5703ZM80.7656 10.9922L80.0273 8.17969C79.8555 7.55469 79.6445 6.74609 79.3945 5.75391C79.1523 4.76172 78.9922 4.05078 78.9141 3.62109C78.8438 4.01953 78.7031 4.67578 78.4922 5.58984C78.2891 6.50391 77.832 8.30469 77.1211 10.9922H80.7656ZM105.809 18H99.7383L93.4805 5.92969H93.375C93.5234 7.82812 93.5977 9.27734 93.5977 10.2773V18H89.4961V0.867188H95.543L101.777 12.7734H101.848C101.738 11.0469 101.684 9.66016 101.684 8.61328V0.867188H105.809V18ZM122.625 7.96875H130.02V17.2031C128.012 17.8906 125.805 18.2344 123.398 18.2344C120.758 18.2344 118.715 17.4688 117.27 15.9375C115.832 14.4062 115.113 12.2227 115.113 9.38672C115.113 6.62109 115.902 4.46875 117.48 2.92969C119.059 1.39062 121.27 0.621094 124.113 0.621094C125.191 0.621094 126.207 0.722656 127.16 0.925781C128.121 1.12891 128.957 1.38672 129.668 1.69922L128.203 5.33203C126.969 4.72266 125.613 4.41797 124.137 4.41797C122.785 4.41797 121.738 4.85938 120.996 5.74219C120.262 6.61719 119.895 7.87109 119.895 9.50391C119.895 11.1055 120.227 12.3281 120.891 13.1719C121.562 14.0078 122.527 14.4258 123.785 14.4258C124.473 14.4258 125.105 14.3594 125.684 14.2266V11.543H122.625V7.96875ZM148.078 0.867188V11.1797C148.078 13.4219 147.441 15.1602 146.168 16.3945C144.902 17.6211 143.074 18.2344 140.684 18.2344C138.348 18.2344 136.551 17.6367 135.293 16.4414C134.043 15.2461 133.418 13.5273 133.418 11.2852V0.867188H138.07V10.9219C138.07 12.1328 138.297 13.0117 138.75 13.5586C139.203 14.1055 139.871 14.3789 140.754 14.3789C141.699 14.3789 142.383 14.1094 142.805 13.5703C143.234 13.0234 143.449 12.1328 143.449 10.8984V0.867188H148.078ZM157.793 7.21875L160.746 0.867188H165.762L160.125 11.3086V18H155.461V11.4492L149.824 0.867188H154.863L157.793 7.21875ZM178.125 18L177.281 14.7891H171.715L170.848 18H165.762L171.352 0.796875H177.527L183.188 18H178.125ZM176.32 10.9922L175.582 8.17969C175.41 7.55469 175.199 6.74609 174.949 5.75391C174.707 4.76172 174.547 4.05078 174.469 3.62109C174.398 4.01953 174.258 4.67578 174.047 5.58984C173.844 6.50391 173.387 8.30469 172.676 10.9922H176.32ZM201.363 18H195.293L189.035 5.92969H188.93C189.078 7.82812 189.152 9.27734 189.152 10.2773V18H185.051V0.867188H191.098L197.332 12.7734H197.402C197.293 11.0469 197.238 9.66016 197.238 8.61328V0.867188H201.363V18ZM215.578 18L214.734 14.7891H209.168L208.301 18H203.215L208.805 0.796875H214.98L220.641 18H215.578ZM213.773 10.9922L213.035 8.17969C212.863 7.55469 212.652 6.74609 212.402 5.75391C212.16 4.76172 212 4.05078 211.922 3.62109C211.852 4.01953 211.711 4.67578 211.5 5.58984C211.297 6.50391 210.84 8.30469 210.129 10.9922H213.773ZM222.504 18V0.867188H227.156V18H222.504ZM242.074 12.7969C242.074 13.8594 241.805 14.8047 241.266 15.6328C240.727 16.4531 239.949 17.0938 238.934 17.5547C237.918 18.0078 236.727 18.2344 235.359 18.2344C234.219 18.2344 233.262 18.1562 232.488 18C231.715 17.8359 230.91 17.5547 230.074 17.1562V13.0312C230.957 13.4844 231.875 13.8398 232.828 14.0977C233.781 14.3477 234.656 14.4727 235.453 14.4727C236.141 14.4727 236.645 14.3555 236.965 14.1211C237.285 13.8789 237.445 13.5703 237.445 13.1953C237.445 12.9609 237.379 12.7578 237.246 12.5859C237.121 12.4062 236.914 12.2266 236.625 12.0469C236.344 11.8672 235.586 11.5 234.352 10.9453C233.234 10.4375 232.395 9.94531 231.832 9.46875C231.277 8.99219 230.863 8.44531 230.59 7.82812C230.324 7.21094 230.191 6.48047 230.191 5.63672C230.191 4.05859 230.766 2.82812 231.914 1.94531C233.062 1.0625 234.641 0.621094 236.648 0.621094C238.422 0.621094 240.23 1.03125 242.074 1.85156L240.656 5.42578C239.055 4.69141 237.672 4.32422 236.508 4.32422C235.906 4.32422 235.469 4.42969 235.195 4.64062C234.922 4.85156 234.785 5.11328 234.785 5.42578C234.785 5.76172 234.957 6.0625 235.301 6.32812C235.652 6.59375 236.598 7.07812 238.137 7.78125C239.613 8.44531 240.637 9.16016 241.207 9.92578C241.785 10.6836 242.074 11.6406 242.074 12.7969Z" fill="black"/>
</svg>
