<svg width="152" height="152" viewBox="0 0 152 152" fill="none" xmlns="http://www.w3.org/2000/svg">
<circle cx="76.5" cy="76.5" r="11.5" fill="#3F8DF7"/>
<path d="M76.0002 25.3334C48.0638 25.3334 25.3335 48.0637 25.3335 76C25.3335 103.936 48.0638 126.667 76.0002 126.667C86.1649 126.687 96.098 123.631 104.494 117.901C105.815 116.928 106.706 115.48 106.981 113.862C107.257 112.245 106.894 110.583 105.97 109.227C105.045 107.872 103.631 106.927 102.025 106.592C100.419 106.258 98.7451 106.559 97.3562 107.432C91.0649 111.73 83.619 114.02 76.0002 114C55.0432 114 38.0002 96.957 38.0002 76C38.0002 55.043 55.0432 38 76.0002 38C96.9572 38 114 55.043 114 76V79.1667C114 80.8464 113.333 82.4573 112.145 83.645C110.957 84.8328 109.347 85.5 107.667 85.5C105.987 85.5 104.376 84.8328 103.188 83.645C102.001 82.4573 101.333 80.8464 101.333 79.1667V60.1667C101.333 58.487 100.666 56.8761 99.4785 55.6884C98.2908 54.5006 96.6799 53.8334 95.0002 53.8334C93.6768 53.8398 92.3894 54.2648 91.3223 55.0475C90.2553 55.8302 89.4632 56.9304 89.0595 58.1907C85.2863 55.3755 80.7079 53.8479 76.0002 53.8334C63.7768 53.8334 53.8335 63.7767 53.8335 76C53.8335 88.2234 63.7768 98.1667 76.0002 98.1667C82.6185 98.1667 88.5085 95.19 92.5682 90.573C94.3243 92.9223 96.6024 94.8312 99.2227 96.149C101.843 97.4669 104.734 98.1576 107.667 98.1667C118.142 98.1667 126.667 89.642 126.667 79.1667V76C126.667 48.0637 103.936 25.3334 76.0002 25.3334ZM76.0002 85.5C70.7625 85.5 66.5002 81.2377 66.5002 76C66.5002 70.7624 70.7625 66.5 76.0002 66.5C81.2378 66.5 85.5002 70.7624 85.5002 76C85.5002 81.2377 81.2378 85.5 76.0002 85.5Z" fill="black"/>
</svg>
